<?xml version="1.0" standalone="no"?>
<!DOCTYPE svg PUBLIC "-//W3C//DTD SVG 20010904//EN"
 "http://www.w3.org/TR/2001/REC-SVG-20010904/DTD/svg10.dtd">
<svg version="1.0" xmlns="http://www.w3.org/2000/svg"
 width="512.000000pt" height="512.000000pt" viewBox="0 0 512.000000 512.000000"
 preserveAspectRatio="xMidYMid meet">

<g transform="translate(0.000000,512.000000) scale(0.100000,-0.100000)"
fill="url(#paint0_linear)" stroke="none">
<path d="M975 4810 c-377 -147 -566 -226 -578 -241 -15 -19 -17 -48 -17 -279
l0 -257 -40 -18 c-48 -22 -116 -92 -137 -143 -20 -48 -20 -156 0 -204 24 -56
91 -123 149 -148 72 -31 176 -25 241 13 185 109 181 378 -7 478 l-46 24 0 182
c0 101 3 183 7 183 4 0 62 -21 130 -47 l123 -48 0 -378 c0 -437 0 -439 73
-459 l44 -11 6 -86 c12 -168 69 -294 187 -412 119 -120 242 -176 406 -186 103
-6 204 8 279 40 234 98 380 302 401 560 l7 85 36 6 c21 3 47 16 59 29 22 23
22 28 24 422 l3 399 175 69 c96 38 182 75 192 83 44 41 24 112 -39 137 -483
191 -1092 427 -1103 426 -8 0 -267 -99 -575 -219z m1012 -117 c233 -91 420
-170 416 -174 -11 -10 -834 -332 -849 -332 -7 0 -150 53 -320 119 l-308 119
333 5 333 5 19 24 c32 39 25 72 -24 123 -1 1 -165 5 -363 8 l-362 5 337 132
c185 72 342 132 350 132 8 1 205 -74 438 -166z m-721 -573 l285 -110 137 51
c75 28 209 78 296 110 87 32 163 59 167 59 5 0 9 -139 9 -309 l0 -309 -32 -6
c-174 -31 -300 -40 -573 -41 -277 0 -345 5 -532 36 l-63 11 0 309 c0 212 3
309 11 309 6 0 138 -49 295 -110z m-747 -254 c68 -36 68 -156 0 -192 -41 -20
-102 -18 -132 6 -82 65 -38 200 65 200 21 0 51 -6 67 -14z m766 -457 c155 -13
502 -7 654 11 51 6 96 9 99 5 13 -13 -17 -157 -47 -221 -42 -89 -87 -143 -162
-193 -245 -164 -587 -69 -704 194 -26 57 -45 140 -45 192 0 34 1 35 33 29 17
-3 95 -11 172 -17z"/>
<path d="M3755 4945 c-360 -67 -642 -337 -732 -701 -25 -103 -23 -315 5 -416
84 -310 270 -521 564 -640 114 -46 213 -61 367 -55 159 6 219 21 356 86 393
187 594 611 494 1040 -108 463 -584 774 -1054 686z m317 -160 c147 -31 267
-96 379 -205 291 -286 302 -750 26 -1047 -154 -165 -339 -245 -562 -245 -225
1 -435 99 -578 270 -57 68 -130 211 -154 302 -24 90 -23 282 1 369 79 289 308
503 597 560 70 14 218 12 291 -4z"/>
<path d="M4060 4295 l-176 -175 -156 0 c-86 0 -164 -3 -173 -6 -18 -7 -45 -55
-45 -79 0 -9 13 -30 29 -46 l29 -29 188 0 188 0 200 199 c178 177 199 202 199
232 0 23 -8 39 -27 56 -53 45 -65 38 -256 -152z"/>
<path d="M1072 2749 c-204 -43 -355 -120 -464 -238 -56 -61 -128 -179 -128
-211 0 -8 -7 -9 -18 -5 -9 4 -36 10 -60 12 -35 5 -47 2 -67 -17 -25 -23 -25
-24 -25 -219 l0 -196 -47 -22 c-115 -53 -174 -139 -181 -264 -6 -109 15 -168
88 -240 37 -38 71 -61 98 -70 l42 -12 0 -127 c0 -145 6 -160 75 -183 l40 -14
3 -106 3 -107 -149 0 c-136 0 -152 -2 -176 -21 l-26 -20 0 -279 0 -279 26 -20
27 -21 2427 0 2427 0 27 21 26 20 0 279 0 279 -24 19 -25 19 27 54 c24 47 27
66 27 149 0 82 -4 103 -26 151 l-27 57 24 24 25 24 0 312 c0 195 -4 319 -11
331 -5 11 -19 22 -29 26 -18 5 -17 9 12 68 29 56 32 71 32 152 0 76 -4 99 -26
145 -32 69 -75 119 -137 159 -96 61 -94 61 -884 61 l-717 0 -26 -22 -26 -23 0
-320 0 -320 26 -23 26 -22 -28 -58 c-24 -50 -28 -69 -28 -147 0 -77 4 -98 27
-149 l28 -58 -25 -20 -25 -19 0 -265 0 -264 -265 0 -265 0 0 105 0 105 28 10
c85 31 92 46 92 198 l0 117 44 18 c106 44 175 144 183 265 9 124 -60 243 -172
298 l-55 26 0 195 c0 193 0 194 -25 218 -26 26 -65 32 -108 16 -23 -9 -27 -5
-65 72 -42 85 -125 178 -206 233 -135 92 -471 189 -534 155 -12 -6 -87 -104
-168 -217 -81 -112 -148 -203 -149 -202 -1 2 -66 93 -145 203 -78 110 -149
206 -158 213 -22 17 -80 14 -190 -9z m273 -371 c103 -145 176 -238 193 -246
52 -25 70 -8 248 241 l167 234 82 -18 c227 -49 377 -147 449 -291 14 -28 25
-52 23 -54 -1 -1 -213 -70 -471 -154 l-469 -152 -456 146 c-251 81 -462 149
-468 151 -20 7 -15 27 22 91 82 139 252 236 485 277 14 2 26 5 27 6 1 0 77
-104 168 -231z m3442 -127 c151 -86 129 -307 -36 -366 -38 -13 -135 -15 -707
-15 l-664 0 0 65 0 65 544 0 c535 0 544 0 570 21 37 29 37 89 0 118 -26 21
-35 21 -570 21 l-544 0 0 60 0 61 683 -3 682 -3 42 -24z m-3789 -297 l492
-158 0 -517 0 -517 -312 102 c-172 57 -402 131 -510 167 l-197 64 -1 85 0 85
44 18 c64 27 121 80 153 145 24 48 28 70 28 137 0 67 -4 89 -28 137 -32 65
-90 122 -153 150 l-44 19 0 126 c0 114 2 125 18 121 9 -3 239 -76 510 -164z
m1662 43 l0 -123 -51 -24 c-61 -27 -120 -83 -150 -142 -31 -60 -38 -177 -14
-249 23 -69 112 -161 174 -180 l42 -12 -3 -85 -3 -85 -502 -168 -503 -167 0
517 0 517 65 21 65 21 0 -263 c0 -260 0 -264 23 -289 20 -23 40 -30 77 -27 9
0 51 30 94 66 43 36 81 65 85 65 3 0 42 -15 85 -34 65 -28 83 -33 106 -24 55
19 55 17 60 361 l5 321 160 52 c88 28 166 52 173 53 9 1 12 -30 12 -122z
m-510 -252 l0 -214 -42 19 c-59 27 -82 25 -121 -10 -19 -16 -37 -30 -41 -30
-3 0 -6 85 -6 189 l0 189 103 35 c56 20 103 36 105 36 1 1 2 -96 2 -214z
m-1690 -45 c73 -37 101 -135 59 -210 -28 -50 -65 -70 -131 -70 -92 0 -150 55
-150 144 0 51 13 85 43 113 50 46 117 55 179 23z m2354 -3 c71 -41 96 -129 57
-205 -26 -50 -67 -72 -133 -72 -101 0 -153 57 -146 161 3 45 10 65 29 85 51
56 128 69 193 31z m2074 -54 l-3 -58 -553 -5 c-533 -5 -554 -6 -568 -24 -18
-25 -18 -77 0 -102 14 -18 35 -19 568 -24 l553 -5 3 -62 3 -63 -676 0 c-733 0
-711 -2 -769 56 -104 106 -82 258 49 327 26 14 110 16 713 17 l683 0 -3 -57z
m-101 -532 c64 -37 96 -90 101 -165 3 -49 0 -71 -16 -102 -24 -47 -67 -89
-105 -103 -19 -7 -252 -11 -708 -11 l-679 0 0 65 0 65 555 0 556 0 24 25 c40
40 30 96 -22 123 -16 9 -172 12 -567 12 l-546 0 0 60 0 61 683 -3 682 -3 42
-24z m-3822 -345 l100 -34 -237 -1 -238 -1 0 79 0 79 138 -44 c75 -24 182 -59
237 -78z m1575 44 l0 -80 -237 1 -238 1 235 78 c129 43 236 78 238 79 1 1 2
-35 2 -79z m2350 -400 l0 -160 -2330 0 -2330 0 0 160 0 160 2330 0 2330 0 0
-160z"/>
</g>
<defs>
<linearGradient id="paint0_linear" x1="51.2" y1="0" x2="460.8" y2="512" gradientUnits="userSpaceOnUse">
<stop offset="0.259336" stop-color="#FFDB6E"/>
<stop offset="1" stop-color="#FFBC5E"/>
</linearGradient>
</defs>
<g filter="url(#glow)" fill="url(#paint0_linear)" stroke="#333333" stroke-width="1">
    <!-- 代码编辑器图标 -->
    <path d="M100 80H412C423.046 80 432 88.9543 432 100V320C432 331.046 423.046 340 412 340H100C88.9543 340 80 331.046 80 320V100C80 88.9543 88.9543 80 100 80Z"/>
    <path d="M220 180L180 220L220 260" stroke-linecap="round" stroke-linejoin="round"/>
    <path d="M292 180L332 220L292 260" stroke-linecap="round" stroke-linejoin="round"/>
    
    <!-- 学习图标 -->
    <path d="M256 360C284.719 360 308 383.281 308 412C308 440.719 284.719 464 256 464C227.281 464 204 440.719 204 412C204 383.281 227.281 360 256 360Z"/>
    <path d="M256 380V444" stroke-linecap="round"/>
    <path d="M232 400H280" stroke-linecap="round"/>
  </g>
</svg>