<?xml version="1.0" standalone="no"?>
<!DOCTYPE svg PUBLIC "-//W3C//DTD SVG 20010904//EN"
 "http://www.w3.org/TR/2001/REC-SVG-20010904/DTD/svg10.dtd">
<svg version="1.0" xmlns="http://www.w3.org/2000/svg"
 width="512.000000pt" height="512.000000pt" viewBox="0 0 512.000000 512.000000"
 preserveAspectRatio="xMidYMid meet">

<g transform="translate(0.000000,512.000000) scale(0.100000,-0.100000)"
fill="url(#paint0_linear)" stroke="none">
<path d="M33 4896 l-28 -24 -3 -1730 c-1 -1093 1 -1740 7 -1756 6 -14 22 -33
38 -43 26 -17 88 -18 1170 -21 629 -1 1143 -4 1143 -7 0 -2 -151 -224 -335
-494 -371 -542 -366 -532 -306 -592 35 -35 96 -40 129 -11 11 9 174 242 362
517 187 275 345 500 350 500 5 0 163 -225 351 -500 187 -275 351 -508 363
-517 58 -47 156 1 156 77 0 32 -45 102 -335 526 -184 270 -335 492 -335 494 0
3 514 6 1143 7 1082 3 1144 4 1170 21 16 10 32 29 38 43 6 16 8 663 7 1756
l-3 1730 -28 24 -28 24 -2499 0 -2499 0 -28 -24z m4887 -296 l0 -120 -2360 0
-2360 0 0 120 0 120 2360 0 2360 0 0 -120z m0 -1695 l0 -1375 -2360 0 -2360 0
0 1375 0 1375 2360 0 2360 0 0 -1375z" fill="url(#paint1_linear)"/>
<path d="M2464 4052 c-91 -32 -157 -105 -188 -209 -10 -32 -19 -64 -22 -70 -2
-8 -21 -13 -49 -13 -62 0 -95 -34 -95 -96 0 -61 31 -94 94 -101 l48 -6 -4
-121 c-3 -95 -9 -131 -25 -168 -37 -81 -77 -88 -137 -23 -48 51 -80 57 -133
25 -57 -35 -56 -109 2 -177 131 -154 380 -96 455 105 31 82 40 142 40 258 l0
104 40 0 c52 0 88 18 106 51 23 45 18 87 -15 120 -24 24 -38 29 -76 29 -39 0
-46 3 -41 16 3 9 6 19 6 24 0 20 53 70 74 70 13 0 42 -19 68 -45 59 -58 95
-60 144 -11 43 43 44 76 5 139 -35 54 -88 92 -151 106 -62 14 -87 13 -146 -7z" fill="url(#paint1_linear)" stroke="url(#paint2_linear)" stroke-width="0.25"/>
<path d="M683 3983 c-69 -13 -98 -115 -48 -165 30 -30 63 -38 157 -38 l70 0
-4 -122 c-4 -100 -10 -138 -32 -203 -30 -87 -92 -192 -158 -268 -35 -40 -43
-56 -43 -89 0 -33 6 -45 33 -69 61 -54 114 -34 204 79 66 83 146 239 173 337
10 35 19 117 22 198 l6 137 88 0 89 0 0 -278 c0 -326 6 -358 74 -426 122 -123
317 -90 398 67 16 32 21 61 22 120 1 77 0 79 -32 108 -70 63 -162 19 -162 -78
0 -79 -44 -118 -83 -75 -15 16 -17 51 -17 289 l0 271 89 4 c102 5 133 20 151
73 10 30 9 41 -7 73 -29 60 -35 61 -528 60 -242 0 -450 -3 -462 -5z" fill="url(#paint3_linear)" stroke="url(#paint4_linear)" stroke-width="0.25"/>
<path d="M2641 3566 c-31 -17 -50 -53 -51 -94 0 -26 10 -44 49 -85 l49 -52
-49 -52 c-58 -61 -65 -102 -24 -151 47 -56 100 -50 173 21 l42 41 43 -41 c54
-53 89 -67 133 -53 41 14 64 49 64 98 0 32 -7 45 -45 82 -25 24 -45 48 -45 54
0 5 20 31 45 57 38 40 45 55 45 88 0 60 -35 96 -94 96 -41 0 -50 -5 -95 -49
l-50 -50 -55 52 c-58 55 -88 64 -135 38z" fill="url(#paint1_linear)"/>
<path d="M3594 3426 c-41 -18 -64 -52 -64 -95 0 -32 16 -51 175 -211 l175
-175 -161 -160 c-196 -196 -209 -217 -174 -284 26 -51 37 -52 494 -49 l423 3
24 28 c22 26 24 36 24 136 0 104 -1 109 -26 135 -21 20 -37 26 -71 26 -55 0
-90 -31 -99 -89 l-7 -41 -216 0 -216 0 112 113 c120 122 133 139 133 188 0 28
-17 49 -122 156 l-122 123 216 0 216 0 6 -35 c4 -19 18 -47 31 -62 19 -23 31
-28 70 -28 39 0 51 5 71 28 22 26 24 36 24 136 0 102 -1 110 -25 133 -14 14
-39 28 -56 32 -18 3 -205 6 -418 6 -303 -1 -393 -4 -417 -14z" fill="url(#paint1_linear)" stroke="url(#paint2_linear)" stroke-width="0.25"/>
<path d="M2234 2775 c-28 -19 -33 -32 -105 -298 l-62 -227 -18 29 c-10 16 -27
35 -38 40 -12 7 -98 11 -221 11 l-202 0 -29 -29 c-40 -40 -40 -89 0 -133 l29
-33 148 -5 148 -5 42 -170 c35 -143 46 -173 68 -192 45 -39 122 -28 147 20 7
12 60 197 119 412 l107 390 360 5 c377 5 373 5 410 50 7 8 13 34 13 56 0 32
-6 48 -26 68 l-27 26 -421 0 c-353 0 -425 -2 -442 -15z" fill="url(#paint3_linear)" stroke="url(#paint4_linear)" stroke-width="0.25"/>
<path d="M2503 2395 c-40 -17 -69 -71 -59 -111 4 -15 36 -57 71 -94 l65 -66
-56 -55 c-69 -67 -88 -101 -80 -144 10 -52 67 -91 117 -80 18 4 59 34 98 71
l67 63 59 -59 c71 -72 108 -87 158 -66 42 17 57 41 57 93 0 33 -8 46 -67 105
l-66 67 66 71 c61 65 67 74 67 114 0 33 -6 49 -26 69 -52 52 -106 39 -191 -45
l-63 -62 -68 66 c-74 72 -101 84 -149 63z" fill="url(#paint1_linear)" stroke="url(#paint2_linear)" stroke-width="0.25"/>
<path d="M3437 2029 c-52 -30 -58 -116 -11 -160 l26 -24 311 -3 c172 -2 327 0
346 3 51 10 81 45 81 98 0 34 -6 49 -28 70 l-28 27 -340 0 c-211 0 -346 -4
-357 -11z"/>
<path d="M4359 2027 c-37 -28 -51 -96 -28 -139 6 -11 26 -26 46 -34 96 -41
176 74 107 155 -21 26 -33 31 -67 31 -23 0 -49 -6 -58 -13z" fill="url(#paint1_linear)" stroke="url(#paint2_linear)" stroke-width="0.25"/>
</g>
<defs>
<linearGradient id="paint0_linear" x1="3.26667" y1="1" x2="37.8" y2="39.1334" gradientUnits="userSpaceOnUse">
<stop offset="0.259336" stop-color="#FFDB6E"/>
<stop offset="1" stop-color="#FFBC5E"/>
</linearGradient>
<linearGradient id="paint1_linear" x1="29.602" y1="29.21" x2="36.1781" y2="36.4484" gradientUnits="userSpaceOnUse">
<stop offset="0.259336" stop-color="#FFDB6E"/>
<stop offset="1" stop-color="#FFBC5E"/>
</linearGradient>
<linearGradient id="paint2_linear" x1="29.602" y1="29.21" x2="36.1781" y2="36.4484" gradientUnits="userSpaceOnUse">
<stop offset="0.259336" stop-color="#FFDB6E"/>
<stop offset="1" stop-color="#FFBC5E"/>
</linearGradient>
<linearGradient id="paint3_linear" x1="3.26667" y1="1" x2="37.8" y2="39.1334" gradientUnits="userSpaceOnUse">
<stop offset="0.259336" stop-color="#FFDB6E"/>
<stop offset="1" stop-color="#FFBC5E"/>
</linearGradient>
<linearGradient id="paint4_linear" x1="3.26667" y1="1" x2="37.8" y2="39.1334" gradientUnits="userSpaceOnUse">
<stop offset="0.259336" stop-color="#FFDB6E"/>
<stop offset="1" stop-color="#FFBC5E"/>
</linearGradient>
</defs>
</svg>