<?xml version="1.0" standalone="no"?>
<!DOCTYPE svg PUBLIC "-//W3C//DTD SVG 20010904//EN"
 "http://www.w3.org/TR/2001/REC-SVG-20010904/DTD/svg10.dtd">
<svg version="1.0" xmlns="http://www.w3.org/2000/svg"
 width="512.000000pt" height="512.000000pt" viewBox="0 0 512.000000 512.000000"
 preserveAspectRatio="xMidYMid meet">

<g transform="translate(0.000000,512.000000) scale(0.100000,-0.100000)"
fill="url(#paint0_linear)" stroke="none">
<path d="M2400 4979 c-303 -31 -635 -144 -889 -302 -127 -79 -295 -211 -318
-251 -33 -56 0 -130 63 -142 46 -8 68 2 162 80 225 185 525 329 807 385 342
68 647 51 978 -56 120 -38 154 -38 187 4 26 34 26 92 0 126 -16 20 -52 36
-143 66 -267 87 -566 118 -847 90z"/>
<path d="M3675 4711 c-118 -31 -190 -124 -190 -246 1 -82 23 -134 81 -185 52
-45 93 -60 166 -60 80 0 132 24 184 83 81 92 86 222 11 320 -50 65 -173 109
-252 88z m87 -208 c36 -32 17 -83 -32 -83 -51 0 -69 55 -28 84 28 20 37 20 60
-1z"/>
<path d="M4398 4677 c-34 -15 -856 -960 -875 -1005 -12 -30 -12 -38 4 -70 22
-45 62 -66 108 -58 30 6 88 69 456 492 232 267 428 499 436 515 38 76 -51 163
-129 126z"/>
<path d="M949 4151 c-75 -76 4 -201 102 -161 40 17 61 50 61 97 0 29 -7 43
-31 65 -43 39 -92 38 -132 -1z"/>
<path d="M2135 4071 c-11 -5 -29 -19 -40 -31 -19 -21 -20 -38 -23 -321 l-3
-299 -404 0 c-292 0 -411 -3 -430 -12 -55 -25 -55 -24 -55 -573 l0 -505 -110
0 -110 0 0 75 c0 125 -38 165 -153 165 l-54 0 -7 40 c-28 176 -26 444 5 616
18 105 60 254 101 358 62 160 63 161 48 196 -23 55 -101 77 -149 44 -25 -18
-54 -77 -103 -209 -94 -254 -139 -575 -118 -846 5 -75 13 -150 16 -167 l6 -31
-247 -3 -247 -3 -29 -33 -29 -32 0 -905 c0 -680 3 -911 12 -930 24 -54 33 -55
472 -55 l406 0 32 29 c29 25 32 35 36 95 l4 66 191 0 190 0 246 -96 c135 -53
457 -180 716 -281 576 -227 661 -258 761 -276 205 -39 355 -31 606 33 867 218
1161 296 1208 318 106 49 201 172 229 293 45 196 -59 403 -247 492 -48 22 -82
30 -145 34 -74 5 -107 -1 -352 -56 -148 -34 -280 -65 -292 -68 -23 -5 -23 -4
-23 104 l0 109 46 44 c26 25 80 86 122 135 245 291 406 664 458 1058 29 222 5
637 -42 729 -30 58 -107 67 -156 17 -34 -34 -34 -27 -3 -234 19 -129 19 -353
0 -499 -41 -313 -167 -624 -354 -873 l-66 -88 -5 577 -5 578 -28 27 -27 28
-415 3 -415 3 0 550 0 551 -28 27 -27 28 -304 6 c-392 9 -641 8 -666 -2z m628
-198 l197 -6 0 -979 c0 -538 -3 -978 -7 -978 -5 0 -159 63 -343 139 l-335 139
-3 846 -2 846 148 0 c82 0 237 -3 345 -7z m-693 -1127 l0 -474 -67 29 -68 28
-277 1 -278 0 0 445 0 445 345 0 345 0 0 -474z m1780 -820 l0 -784 -72 -17
c-239 -55 -305 -65 -418 -64 -63 0 -133 3 -155 7 l-40 7 -3 72 c-2 60 1 80 21
120 38 74 57 150 57 224 0 73 -27 175 -60 224 -19 29 -20 46 -20 506 0 262 3
479 7 482 3 4 159 7 345 7 l338 0 0 -784z m-3092 -338 l2 -778 -280 0 -280 0
0 780 0 780 278 -2 277 -3 3 -777z m1639 333 c277 -115 522 -221 543 -235 54
-35 91 -102 97 -175 14 -156 -98 -281 -254 -281 -54 0 -90 11 -285 86 -515
199 -507 196 -544 184 -44 -15 -64 -45 -64 -96 0 -31 6 -48 23 -65 29 -27
1021 -410 1157 -446 72 -19 130 -26 240 -30 172 -6 215 -1 530 72 129 29 364
83 522 119 157 36 306 66 330 66 100 0 206 -91 223 -191 16 -91 -25 -188 -100
-238 -46 -31 -1272 -345 -1414 -361 -109 -14 -210 -7 -329 21 -45 10 -290 100
-545 200 -254 100 -616 241 -804 315 l-342 134 -210 0 -211 0 0 565 0 565 466
0 466 0 505 -209z"/>
<path d="M4196 3975 c-49 -17 -113 -78 -137 -130 -22 -48 -25 -151 -5 -199 19
-47 73 -104 120 -129 57 -30 165 -30 221 0 90 48 139 126 139 223 0 177 -170
295 -338 235z m129 -205 c15 -17 16 -24 7 -45 -15 -32 -37 -41 -68 -27 -17 8
-24 20 -24 40 0 52 50 71 85 32z"/>
</g>
<defs>
<linearGradient id="paint0_linear" x1="3.26667" y1="1" x2="37.8" y2="39.1334" gradientUnits="userSpaceOnUse">
<stop offset="0.259336" stop-color="#FFDB6E"/>
<stop offset="1" stop-color="#FFBC5E"/>
</linearGradient>
<linearGradient id="paint1_linear" x1="29.602" y1="29.21" x2="36.1781" y2="36.4484" gradientUnits="userSpaceOnUse">
<stop offset="0.259336" stop-color="#FFDB6E"/>
<stop offset="1" stop-color="#FFBC5E"/>
</linearGradient>
<linearGradient id="paint2_linear" x1="29.602" y1="29.21" x2="36.1781" y2="36.4484" gradientUnits="userSpaceOnUse">
<stop offset="0.259336" stop-color="#FFDB6E"/>
<stop offset="1" stop-color="#FFBC5E"/>
</linearGradient>
<linearGradient id="paint3_linear" x1="3.26667" y1="1" x2="37.8" y2="39.1334" gradientUnits="userSpaceOnUse">
<stop offset="0.259336" stop-color="#FFDB6E"/>
<stop offset="1" stop-color="#FFBC5E"/>
</linearGradient>
<linearGradient id="paint4_linear" x1="3.26667" y1="1" x2="37.8" y2="39.1334" gradientUnits="userSpaceOnUse">
<stop offset="0.259336" stop-color="#FFDB6E"/>
<stop offset="1" stop-color="#FFBC5E"/>
</linearGradient>
</defs>
</svg>